<?xml version="1.0" encoding="UTF-8"?>
<svg id="Layer_1" data-name="Layer 1" xmlns="http://www.w3.org/2000/svg" viewBox="0 0 331.81 32.82">
  <defs>
    <style>
      .cls-1 {
        fill: #fff;
        stroke-width: 0px;
      }
    </style>
  </defs>
  <path class="cls-1" d="M58.84,17.16v15.66h-10.05v-15.42L34.79,0h11.44l7.51,9.28L61.2,0h11.44l-13.81,17.16Z"/>
  <path class="cls-1" d="M102.18,16.03c1.1.37,2.02.84,2.75,1.4.73.56,1.32,1.19,1.76,1.89.45.7.76,1.46.94,2.29s.27,1.72.27,2.69c0,2.12-.4,3.76-1.19,4.91-.79,1.15-1.89,1.99-3.31,2.52s-3.09.84-5.03.93c-1.94.09-4.05.14-6.35.14h-16.4V0h16.4c2.29,0,4.36.05,6.21.16,1.85.11,3.42.43,4.71.96,1.29.53,2.29,1.36,2.99,2.5.7,1.14,1.05,2.72,1.05,4.75s-.38,3.69-1.14,4.91-1.99,2.14-3.69,2.76ZM97.94,10.56c0-.5-.31-.8-.92-.91-.61-.11-1.59-.16-2.93-.16h-8.36v2.38h6.39c2.03,0,3.5-.06,4.43-.19.92-.13,1.39-.5,1.39-1.12ZM92.04,23.28c2.03,0,3.49-.09,4.4-.28s1.36-.65,1.36-1.4-.45-1.23-1.36-1.36c-.91-.12-2.37-.19-4.4-.19h-6.3v3.22h6.3Z"/>
  <path class="cls-1" d="M123.08,9.47v2.86h13.54v8.25h-13.54v2.81h19.48v9.42h-29.58V0h29.58v9.47h-19.48Z"/>
  <path class="cls-1" d="M162.71,22.47h-4.42v10.34h-10.1V0h21.99c3.45,0,6.11,1.01,7.95,3.03s2.76,4.76,2.73,8.2c0,2.7-.57,4.96-1.72,6.79-1.15,1.83-2.81,3.11-4.98,3.83l6.88,10.95h-11.84l-6.48-10.34ZM158.28,13.63h10.19c.83,0,1.43-.22,1.79-.66.36-.44.53-1.02.53-1.74.03-.75-.13-1.34-.49-1.76s-.97-.64-1.83-.64h-10.19v4.8Z"/>
  <path class="cls-1" d="M212.34,16.03c1.1.37,2.02.84,2.75,1.4.73.56,1.32,1.19,1.76,1.89.45.7.76,1.46.94,2.29s.27,1.72.27,2.69c0,2.12-.4,3.76-1.19,4.91s-1.89,1.99-3.31,2.52-3.09.84-5.03.93c-1.94.09-4.05.14-6.35.14h-16.4V0h16.4c2.29,0,4.36.05,6.21.16,1.85.11,3.42.43,4.71.96,1.29.53,2.29,1.36,2.99,2.5.7,1.14,1.05,2.72,1.05,4.75s-.38,3.69-1.14,4.91-1.99,2.14-3.69,2.76ZM208.09,10.56c0-.5-.31-.8-.92-.91-.61-.11-1.59-.16-2.93-.16h-8.36v2.38h6.39c2.03,0,3.5-.06,4.43-.19.92-.13,1.39-.5,1.39-1.12ZM202.19,23.28c2.03,0,3.49-.09,4.4-.28s1.36-.65,1.36-1.4-.45-1.23-1.36-1.36c-.91-.12-2.37-.19-4.4-.19h-6.3v3.22h6.3Z"/>
  <path class="cls-1" d="M256.63,15.99c0,2.62-.31,4.98-.94,7.06s-1.55,3.84-2.77,5.3-2.72,2.56-4.49,3.33c-1.77.77-3.8,1.15-6.1,1.15h-5.85c-2.29,0-4.32-.38-6.08-1.15-1.76-.76-3.24-1.88-4.45-3.33-1.2-1.45-2.11-3.22-2.72-5.3s-.92-4.43-.92-7.06V0h10.23v15.84c0,1.41.06,2.59.18,3.54s.33,1.72.63,2.3c.3.58.7.98,1.21,1.22.51.23,1.15.35,1.92.35h5.85c1.01,0,1.79-.19,2.35-.59.55-.39.96-.92,1.23-1.59s.43-1.45.47-2.34.07-1.82.07-2.79V0h10.19v15.99Z"/>
  <path class="cls-1" d="M284.58,11.97c2.95,0,5.21.89,6.77,2.66s2.32,4.27,2.25,7.48c-.03,1.56-.25,2.98-.67,4.28s-1.03,2.41-1.83,3.34-1.79,1.67-2.95,2.2c-1.16.53-2.49.8-3.97.8h-21.59v-9.4h19.89c.56,0,1-.14,1.29-.42.3-.28.45-.59.45-.94,0-.31-.13-.59-.4-.84s-.67-.37-1.21-.37h-12.06c-1.46,0-2.79-.23-3.98-.7s-2.21-1.14-3.06-2.01c-.85-.87-1.49-1.93-1.94-3.18s-.65-2.66-.63-4.25c.03-1.56.29-2.98.78-4.28s1.17-2.41,2.03-3.34c.86-.94,1.91-1.66,3.13-2.17,1.22-.52,2.59-.77,4.11-.77h20.6v9.4h-19.48c-.51,0-.9.13-1.19.37s-.43.54-.43.89c0,.31.14.6.43.86.28.27.71.4,1.27.4h12.38Z"/>
  <path class="cls-1" d="M331.81,0v32.82h-10.1v-12.23h-13.05v12.23h-10.1V0h10.1v12.33h13.05V0h10.1Z"/>
  <g>
    <path class="cls-1" d="M1.84,24.61c.72,1.42,1.56,2.73,2.63,3.79,1.43,1.42,3.11,2.51,5.05,3.27,1.94.76,4.05,1.15,6.35,1.15h16.4v-9.44H15.87c-1.01,0-1.88-.19-2.59-.59-.71-.39-1.31-.91-1.79-1.57s-.83-1.42-1.05-2.29c-.22-.87-.33-1.79-.33-2.76,0-.86.13-1.62.29-2.35-4.08,2.69-7.09,6.44-8.56,10.78Z"/>
    <path class="cls-1" d="M14.69,9.49c4.79-.05,17.58-.1,17.58-.1V0H15.87c-2.29,0-4.41.36-6.37,1.07s-3.64,1.76-5.07,3.13c-1.43,1.37-2.54,3.07-3.33,5.1-.68,1.74-1.01,3.73-1.1,5.89,4.06-3.23,9.14-5.29,14.69-5.7Z"/>
  </g>
</svg>