<?xml version="1.0" encoding="utf-8"?>
<!-- Generator: Adobe Illustrator 27.7.0, SVG Export Plug-In . SVG Version: 6.00 Build 0)  -->
<svg version="1.1" id="Layer_1" xmlns="http://www.w3.org/2000/svg" xmlns:xlink="http://www.w3.org/1999/xlink" x="0px" y="0px"
	 viewBox="0 0 400 98" style="enable-background:new 0 0 400 98;" xml:space="preserve">
<style type="text/css">
	.st0{fill:#FFFFFF;}
</style>
<g>
	<g>
		<defs>
			<rect id="SVGID_1_" y="0" width="400" height="98"/>
		</defs>
		<use xlink:href="#SVGID_1_"  style="overflow:visible;fill:#C22E26;"/>
		<clipPath id="SVGID_00000060747544768043268220000016192661724175458438_">
			<use xlink:href="#SVGID_1_"  style="overflow:visible;"/>
		</clipPath>
	</g>
	<g>
		<path class="st0" d="M93,49.7v15.6h-10V49.9L69,32.6h11.4l7.5,9.3l7.5-9.3h11.4L93,49.7z"/>
		<path class="st0" d="M136.3,48.5c1.1,0.4,2,0.8,2.7,1.4c0.7,0.6,1.3,1.2,1.8,1.9c0.4,0.7,0.8,1.5,0.9,2.3c0.2,0.8,0.3,1.7,0.3,2.7
			c0,2.1-0.4,3.8-1.2,4.9c-0.8,1.2-1.9,2-3.3,2.5c-1.4,0.5-3.1,0.8-5,0.9c-1.9,0.1-4.1,0.1-6.3,0.1h-16.4V32.5h16.4
			c2.3,0,4.4,0.1,6.2,0.2c1.8,0.1,3.4,0.4,4.7,1c1.3,0.5,2.3,1.4,3,2.5c0.7,1.1,1.1,2.7,1.1,4.7c0,2.1-0.4,3.7-1.1,4.9
			C139.2,47,138,47.9,136.3,48.5z M132.1,43.1c0-0.5-0.3-0.8-0.9-0.9c-0.6-0.1-1.6-0.2-2.9-0.2h-8.4v2.4h6.4c2,0,3.5-0.1,4.4-0.2
			C131.6,44.1,132.1,43.7,132.1,43.1z M126.2,55.8c2,0,3.5-0.1,4.4-0.3c0.9-0.2,1.4-0.7,1.4-1.4c0-0.8-0.5-1.2-1.4-1.4
			c-0.9-0.1-2.4-0.2-4.4-0.2h-6.3v3.2H126.2z"/>
		<path class="st0" d="M157.2,42v2.9h13.5v8.2h-13.5v2.8h19.5v9.4h-29.6V32.6h29.6V42H157.2z"/>
		<path class="st0" d="M196.8,55h-4.4v10.3h-10.1V32.7h22c3.5,0,6.1,1,7.9,3c1.8,2,2.8,4.7,2.7,8.2c0,2.7-0.6,4.9-1.7,6.8
			c-1.1,1.8-2.8,3.1-5,3.8l6.9,10.9h-11.8L196.8,55z M192.4,46.2h10.2c0.8,0,1.4-0.2,1.8-0.7c0.4-0.4,0.5-1,0.5-1.7
			c0-0.7-0.1-1.3-0.5-1.8s-1-0.6-1.8-0.6h-10.2V46.2z"/>
		<path class="st0" d="M246.4,48.5c1.1,0.4,2,0.8,2.7,1.4c0.7,0.6,1.3,1.2,1.8,1.9c0.4,0.7,0.8,1.5,0.9,2.3c0.2,0.8,0.3,1.7,0.3,2.7
			c0,2.1-0.4,3.8-1.2,4.9c-0.8,1.2-1.9,2-3.3,2.5s-3.1,0.8-5,0.9c-1.9,0.1-4.1,0.1-6.3,0.1h-16.4V32.5h16.4c2.3,0,4.4,0.1,6.2,0.2
			c1.8,0.1,3.4,0.4,4.7,1c1.3,0.5,2.3,1.4,3,2.5c0.7,1.1,1.1,2.7,1.1,4.7c0,2.1-0.4,3.7-1.1,4.9C249.3,47,248.1,47.9,246.4,48.5z
			 M242.2,43.1c0-0.5-0.3-0.8-0.9-0.9c-0.6-0.1-1.6-0.2-2.9-0.2H230v2.4h6.4c2,0,3.5-0.1,4.4-0.2C241.7,44.1,242.2,43.7,242.2,43.1z
			 M236.3,55.8c2,0,3.5-0.1,4.4-0.3c0.9-0.2,1.4-0.7,1.4-1.4c0-0.8-0.5-1.2-1.4-1.4c-0.9-0.1-2.4-0.2-4.4-0.2H230v3.2H236.3z"/>
		<path class="st0" d="M290.7,48.5c0,2.6-0.3,5-0.9,7c-0.6,2.1-1.5,3.8-2.8,5.3c-1.2,1.5-2.7,2.6-4.5,3.3c-1.8,0.8-3.8,1.1-6.1,1.1
			h-5.9c-2.3,0-4.3-0.4-6.1-1.1c-1.8-0.8-3.2-1.9-4.4-3.3c-1.2-1.5-2.1-3.2-2.7-5.3s-0.9-4.4-0.9-7v-16h10.2v15.8
			c0,1.4,0.1,2.6,0.2,3.5c0.1,1,0.3,1.7,0.6,2.3c0.3,0.6,0.7,1,1.2,1.2c0.5,0.2,1.1,0.4,1.9,0.4h5.9c1,0,1.8-0.2,2.3-0.6
			c0.6-0.4,1-0.9,1.2-1.6c0.3-0.7,0.4-1.5,0.5-2.3c0-0.9,0.1-1.8,0.1-2.8V32.6h10.2V48.5z"/>
		<path class="st0" d="M318.6,44.5c2.9,0,5.2,0.9,6.8,2.7s2.3,4.3,2.3,7.5c0,1.6-0.3,3-0.7,4.3c-0.4,1.3-1,2.4-1.8,3.3
			s-1.8,1.7-2.9,2.2c-1.2,0.5-2.5,0.8-4,0.8h-21.6v-9.4h19.9c0.6,0,1-0.1,1.3-0.4c0.3-0.3,0.4-0.6,0.4-0.9c0-0.3-0.1-0.6-0.4-0.8
			s-0.7-0.4-1.2-0.4h-12.1c-1.5,0-2.8-0.2-4-0.7c-1.2-0.5-2.2-1.1-3.1-2c-0.8-0.9-1.5-1.9-1.9-3.2c-0.4-1.2-0.7-2.7-0.6-4.3
			c0-1.6,0.3-3,0.8-4.3c0.5-1.3,1.2-2.4,2-3.3c0.9-0.9,1.9-1.7,3.1-2.2c1.2-0.5,2.6-0.8,4.1-0.8h20.6v9.4h-19.5
			c-0.5,0-0.9,0.1-1.2,0.4c-0.3,0.2-0.4,0.5-0.4,0.9c0,0.3,0.1,0.6,0.4,0.9c0.3,0.3,0.7,0.4,1.3,0.4H318.6z"/>
		<path class="st0" d="M365.8,32.6v32.7h-10.1V53.1h-13v12.2h-10.1V32.6h10.1v12.3h13V32.6H365.8z"/>
		<g>
			<path class="st0" d="M36,57.1c0.7,1.4,1.6,2.7,2.6,3.8c1.4,1.4,3.1,2.5,5,3.3c1.9,0.8,4,1.1,6.3,1.1h16.4v-9.4H50
				c-1,0-1.9-0.2-2.6-0.6c-0.7-0.4-1.3-0.9-1.8-1.6c-0.5-0.7-0.8-1.4-1.1-2.3c-0.2-0.9-0.3-1.8-0.3-2.8c0-0.9,0.1-1.6,0.3-2.3
				C40.5,49,37.5,52.8,36,57.1z"/>
			<path class="st0" d="M48.9,42c4.8-0.1,17.6-0.1,17.6-0.1v-9.4H50c-2.3,0-4.4,0.4-6.4,1.1c-2,0.7-3.6,1.8-5.1,3.1
				c-1.4,1.4-2.5,3.1-3.3,5.1c-0.7,1.7-1,3.7-1.1,5.9C38.2,44.5,43.3,42.4,48.9,42z"/>
		</g>
	</g>
</g>
</svg>
